<svg width="48" height="48" viewBox="0 0 48 48" fill="none" xmlns="http://www.w3.org/2000/svg">
<g id="user-circle">
<rect width="48" height="48" fill="white"/>
<path id="Exclude" fill-rule="evenodd" clip-rule="evenodd" d="M4 24C4 12.9543 12.9543 4 24 4C35.0457 4 44 12.9543 44 24C44 35.0457 35.0457 44 24 44C12.9543 44 4 35.0457 4 24ZM24.0001 7.2C19.3609 7.2 15.6001 12.0353 15.6001 18C15.6001 23.9647 19.3609 28.8 24.0001 28.8C28.6392 28.8 32.4001 23.9647 32.4001 18C32.4001 12.0353 28.6392 7.2 24.0001 7.2ZM35.4228 34.1347C36.0764 34.7553 36.0371 35.7796 35.405 36.422C32.5026 39.3713 28.465 41.2 24.0003 41.2C19.5579 41.2 15.5383 39.3895 12.6392 36.4661C12.0013 35.8229 11.9621 34.7929 12.6197 34.1699C13.3845 33.4453 14.2992 32.8636 15.3771 32.4193C17.6304 31.4905 20.5086 31.2 24.0001 31.2C27.5092 31.2 30.4037 31.4717 32.6628 32.3907C33.7436 32.8304 34.659 33.4096 35.4228 34.1347ZM24 14.2001C23.5819 14.2001 23.2077 14.382 22.9497 14.6743C22.5842 15.0884 21.9523 15.1278 21.5382 14.7623C21.1241 14.3969 21.0847 13.7649 21.4502 13.3509C22.0718 12.6467 22.9843 12.2001 24 12.2001C25.8777 12.2001 27.4 13.7223 27.4 15.6001C27.4 17.1309 26.3892 18.4232 25 18.8504V19.2001C25 19.7524 24.5522 20.2001 24 20.2001C23.4477 20.2001 23 19.7524 23 19.2001V18.6001C23 17.6733 23.7327 17.1134 24.3472 16.957C24.953 16.8027 25.4 16.2524 25.4 15.6001C25.4 14.8269 24.7731 14.2001 24 14.2001ZM23 22.8001C23 22.2478 23.4477 21.8001 24 21.8001H24.012C24.5642 21.8001 25.012 22.2478 25.012 22.8001C25.012 23.3524 24.5642 23.8001 24.012 23.8001H24C23.4477 23.8001 23 23.3524 23 22.8001Z" fill="#FFAE0A"/>
</g>
</svg>
