<svg width="48" height="48" viewBox="0 0 48 48" fill="none" xmlns="http://www.w3.org/2000/svg">
<rect width="48" height="48" />
<path fill-rule="evenodd" clip-rule="evenodd" d="M4 24C4 12.9543 12.9543 4 24 4C35.0457 4 44 12.9543 44 24C44 35.0457 35.0457 44 24 44C12.9543 44 4 35.0457 4 24ZM18.0001 18.5C18.8285 18.5 19.5001 19.1716 19.5001 20V20.0225C19.5001 20.8509 18.8285 21.5225 18.0001 21.5225C17.1717 21.5225 16.5001 20.8509 16.5001 20.0225V20C16.5001 19.1716 17.1717 18.5 18.0001 18.5ZM15.3995 27.2004C15.8411 26.8687 16.468 26.9578 16.7997 27.3994C18.4433 29.5877 21.057 31 24.0008 31C26.9447 31 29.5583 29.5877 31.202 27.3994C31.5337 26.9578 32.1606 26.8687 32.6022 27.2004C33.0437 27.5321 33.1328 28.159 32.8011 28.6006C30.796 31.2701 27.6003 33 24.0008 33C20.4014 33 17.2057 31.2701 15.2006 28.6006C14.8689 28.159 14.958 27.5321 15.3995 27.2004ZM31.5001 20C31.5001 19.1716 30.8285 18.5 30.0001 18.5C29.1717 18.5 28.5001 19.1716 28.5001 20V20.0225C28.5001 20.8509 29.1717 21.5225 30.0001 21.5225C30.8285 21.5225 31.5001 20.8509 31.5001 20.0225V20Z" fill="#58C58B"/>
</svg>
