<svg width="28" height="28" viewBox="0 0 28 28" fill="none" xmlns="http://www.w3.org/2000/svg">
<g id="Subjects Icons">
<path id="Vector" d="M24.5536 14.9286L16.6786 22.8036C16.432 23.0502 16.0976 23.1887 15.7489 23.1887C15.4002 23.1887 15.0658 23.0502 14.8192 22.8036C14.5727 22.557 14.4341 22.2226 14.4341 21.8739C14.4341 21.5252 14.5727 21.1908 14.8192 20.9442L20.4531 15.3125H4.375C4.0269 15.3125 3.69306 15.1742 3.44692 14.9281C3.20078 14.6819 3.0625 14.3481 3.0625 14C3.0625 13.6519 3.20078 13.3181 3.44692 13.0719C3.69306 12.8258 4.0269 12.6875 4.375 12.6875H20.4531L14.8214 7.05251C14.5748 6.80594 14.4363 6.47152 14.4363 6.12282C14.4363 5.77412 14.5748 5.4397 14.8214 5.19313C15.068 4.94656 15.4024 4.80804 15.7511 4.80804C16.0998 4.80804 16.4342 4.94656 16.6808 5.19313L24.5558 13.0681C24.6782 13.1902 24.7752 13.3353 24.8414 13.495C24.9075 13.6547 24.9415 13.8259 24.9413 13.9988C24.9411 14.1717 24.9067 14.3428 24.8402 14.5024C24.7737 14.6619 24.6763 14.8068 24.5536 14.9286Z" fill="white"/>
</g>
</svg>
