<svg width="10" height="10" viewBox="0 0 10 10" fill="none" xmlns="http://www.w3.org/2000/svg">
<path fill-rule="evenodd" clip-rule="evenodd" d="M10 5C10 7.7614 7.7614 10 5 10C2.2386 10 0 7.7614 0 5C0 2.2386 2.2386 0 5 0C7.7614 0 10 2.2386 10 5Z" fill="#EE6922"/>
<path fill-rule="evenodd" clip-rule="evenodd" d="M7.7406 4.20576C7.71555 4.13395 7.65746 4.08816 7.577 4.07668C7.45844 4.0599 7.34002 4.04261 7.22153 4.0253L6.05051 3.85469C6.00137 3.84746 5.95216 3.8403 5.90294 3.83366C5.88602 3.79936 5.86871 3.76528 5.85149 3.73113C5.83098 3.69086 5.81055 3.65052 5.79072 3.60995L5.62734 3.27566C5.56836 3.1548 5.50945 3.03385 5.45009 2.91312C5.35151 2.71223 5.25211 2.51157 5.15249 2.31128C5.11781 2.24141 5.04652 2.1989 4.97755 2.20002C4.9003 2.20039 4.83453 2.24141 4.79978 2.3112C4.70008 2.51157 4.60083 2.71223 4.5021 2.91312C4.44289 3.03385 4.38391 3.1548 4.32493 3.27566L4.16162 3.60995C4.14186 3.65015 4.12158 3.6902 4.10129 3.73016C4.08384 3.76461 4.0664 3.79906 4.04925 3.83366C4.00011 3.8403 3.95097 3.84746 3.9019 3.85469L2.72856 4.0256C2.61082 4.04283 2.49308 4.06006 2.37526 4.07668C2.2948 4.08816 2.23672 4.13395 2.21173 4.20568C2.18526 4.2813 2.20406 4.35766 2.26319 4.41522L2.5505 4.6953C2.85899 4.99588 3.1674 5.29647 3.47611 5.59683C3.46985 5.63269 3.46396 5.66864 3.45799 5.70458L3.18799 7.27805L3.18671 7.29125C3.1856 7.36701 3.22072 7.43449 3.28089 7.47177C3.31117 7.49057 3.34517 7.49996 3.37962 7.49996C3.40975 7.49996 3.44025 7.49273 3.46858 7.47811C3.55054 7.43598 3.63189 7.39259 3.71317 7.34926L4.4968 6.9322C4.65661 6.84704 4.81633 6.76189 4.97613 6.67725C5.13861 6.7633 5.30088 6.8498 5.46314 6.9363L6.24058 7.35001C6.32142 7.3931 6.40225 7.4362 6.4836 7.47811C6.5446 7.50943 6.6147 7.50697 6.67137 7.47177C6.73155 7.43449 6.76674 7.36701 6.76554 7.29125L6.49389 5.7022C6.48807 5.66707 6.48226 5.63195 6.47615 5.59683C6.78486 5.29647 7.09335 4.99588 7.40184 4.6953L7.68908 4.41522C7.74821 4.35766 7.76692 4.28137 7.7406 4.20576Z" fill="white"/>
</svg>
