<svg width="48" height="48" viewBox="0 0 48 48" fill="none" xmlns="http://www.w3.org/2000/svg">
<path fill-rule="evenodd" clip-rule="evenodd" d="M42.96 11.7174C42.8328 10.8283 42.1289 10.1329 41.2383 10.017C40.98 9.98278 40.7222 9.94345 40.4648 9.90295C40.1665 9.85604 39.7954 9.79473 39.3726 9.71884C39.0901 9.66818 38.7844 9.61102 38.4622 9.5473C36.8291 9.22454 34.8557 8.75131 33.272 8.13595C30.407 7.02288 27.6311 5.64831 24.907 4.22793C24.3076 3.91461 23.5786 3.93087 22.9907 4.26202C20.4277 5.69616 17.7944 7.07159 15.0549 8.13595C13.4839 8.74621 11.4307 9.21942 9.70068 9.54354C8.84985 9.70297 8.10376 9.82153 7.57153 9.90005C7.29443 9.94094 7.01709 9.98056 6.73926 10.0148C5.84106 10.1237 5.12793 10.8218 5 11.7174C3.95605 19.0263 4.78393 25.6057 7.82886 31.1378C10.8796 36.6813 16.0352 40.9524 23.2317 43.855C23.478 43.9544 23.7392 44.0027 24 44.0001C24.2474 43.9976 24.4944 43.9493 24.728 43.855C31.9248 40.9524 37.0801 36.6813 40.1311 31.1378C43.1758 25.6057 44.0042 19.0263 42.96 11.7174ZM16 20.0001C16 15.5818 19.5817 12.0001 24 12.0001C28.4183 12.0001 32 15.5818 32 20.0001C32 24.4184 28.4183 28.0001 24 28.0001C19.5817 28.0001 16 24.4184 16 20.0001ZM16.7943 34.9628C18.2867 34.317 20.531 34.0001 24.0001 34.0001C27.5505 34.0001 29.8156 34.3085 31.3076 34.9601C32.3199 35.4022 33.4989 34.94 33.9409 33.9278C34.383 32.9155 33.9208 31.7365 32.9085 31.2945C30.6087 30.2901 27.6293 30.0001 24.0001 30.0001C20.4247 30.0001 17.4877 30.3043 15.2057 31.2918C14.192 31.7305 13.7258 32.9079 14.1645 33.9216C14.6032 34.9353 15.7806 35.4015 16.7943 34.9628Z" fill="#5278FF"/>
<path d="M24 16C21.7909 16 20 17.7909 20 20C20 22.2091 21.7909 24 24 24C26.2092 24 28 22.2091 28 20C28 17.7909 26.2092 16 24 16Z" fill="#5278FF"/>
</svg>
