<svg width="452" height="401" viewBox="0 0 452 401" fill="none" xmlns="http://www.w3.org/2000/svg">
<path opacity="0.3" fill-rule="evenodd" clip-rule="evenodd" d="M839.421 309.459C877.536 378.213 827.851 458.2 807.003 534.004C782.551 622.907 784.812 728.31 709.563 781.613C625.452 841.193 510.218 848.802 413.728 812.582C317.241 776.363 243.546 692.53 211.412 594.619C182.077 505.24 216.386 412.673 254.202 326.525C289.324 246.513 330.174 154.679 414.537 131.875C494.403 110.287 558.606 191.713 634.931 223.613C705.838 253.249 802.163 242.252 839.421 309.459Z" fill="url(#paint0_linear_1556_3464)"/>
<path opacity="0.3" d="M877.263 667.142C844.008 700.109 794.898 721.266 745.914 742.37C721.907 752.713 697.929 763.043 675.864 774.743C649.087 788.942 622.993 805.66 596.968 822.333L596.966 822.335C581.812 832.043 566.682 841.736 551.455 850.909H217.576C142.089 805.498 79.9084 737.367 41.7246 660.43C-17.7862 540.52 -11.6332 399.589 47.4203 284.233C101.328 178.928 219.369 128.929 334.883 87.7709C442.17 49.5434 565.827 6.1607 667.905 63.1484C731.99 98.9258 747.83 168.213 764.088 239.327C772.346 275.45 780.712 312.045 795.563 344.958C809.358 375.53 830.161 404.685 850.695 433.465C859.817 446.248 868.885 458.958 877.263 471.685V424.909H926.263V681.909H877.263V667.142Z" fill="url(#paint1_linear_1556_3464)"/>
<defs>
<linearGradient id="paint0_linear_1556_3464" x1="848.386" y1="328.342" x2="218.077" y2="614.546" gradientUnits="userSpaceOnUse">
<stop stop-color="#0A1330"/>
<stop offset="1" stop-color="white" stop-opacity="0"/>
</linearGradient>
<linearGradient id="paint1_linear_1556_3464" x1="955.14" y1="631.844" x2="50.1877" y2="275.608" gradientUnits="userSpaceOnUse">
<stop stop-color="#0A1330"/>
<stop offset="1" stop-color="white" stop-opacity="0"/>
</linearGradient>
</defs>
</svg>
